<?xml version="1.0" encoding="utf-8"?>
<!-- Generator: Adobe Illustrator 24.0.2, SVG Export Plug-In . SVG Version: 6.00 Build 0)  -->
<svg version="1.1" id="Layer_1" xmlns="http://www.w3.org/2000/svg" xmlns:xlink="http://www.w3.org/1999/xlink" x="0px" y="0px"
	 viewBox="0 0 512 512" style="enable-background:new 0 0 512 512;" xml:space="preserve">
<style type="text/css">
	.st0{fill:#F16724;}
	.st1{fill:#020325;}
	.st2{fill:#F29E26;}
	.st3{fill:none;stroke:#FFECE0;stroke-width:10;stroke-linecap:round;stroke-miterlimit:10;}
</style>
<path class="st0" d="M366.1116,243.1701c0,0,48.1449-63.1175,114.6861-91.4366c0,0,38.2315,4.2654,19.8435,80.7097
	c0,0-4.1464,29.9668,4.9975,44.7211c9.1523,14.7365-14.9192,46.8814-14.9192,46.8814s-86.3576-3.5887-124.6079-51.8423V243.1701z"/>
<path class="st1" d="M480.7977,151.7335c0,0,10.9828,32.5846,5.6741,54.8809c-5.3086,22.2963-15.5781,56.1434-5.6741,70.5499
	c9.9218,14.3887,1.4368,40.0714,9.9218,46.8814c8.4934,6.8091,26.4877-36.447,12.7036-51.3297c0,0-5.244-22.8821-1.7658-44.7764
	C505.1532,206.0651,515.8716,164.84,480.7977,151.7335z"/>
<path class="st2" d="M366.1116,257.0461l114.7133-27.2019c0,0-10.1776,40.5287,1.7208,50.3221c0,0-98.7228-8.201-116.4341-7.9629
	C348.4284,272.4414,366.1116,257.0461,366.1116,257.0461z"/>
<path class="st0" d="M146.0678,248.1131c0,0-48.1533-63.1184-114.6852-91.4375c0,0-38.2315,4.2476-19.8342,80.6919
	c0,0,4.1455,29.9668-4.9974,44.7211c-9.1438,14.7543,14.9192,46.8805,14.9192,46.8805s86.3567-3.5878,124.5976-51.8414V248.1131z"/>
<path class="st1" d="M31.3826,156.6756c0,0-10.9743,32.5658-5.6563,54.8622c5.3086,22.2973,15.5594,56.1443,5.6563,70.5508
	c-9.9124,14.4065-1.419,40.0714-9.9124,46.8805c-8.4943,6.8101-26.498-36.4461-12.7232-51.3287c0,0,5.2636-22.8821,1.7855-44.7764
	C7.0262,210.9895-3.6548,169.7643,31.3826,156.6756z"/>
<path class="st2" d="M146.0678,261.9705L31.3545,234.7685c0,0,10.188,40.5287-1.7021,50.3221c0,0,98.705-8.2188,116.4154-7.9629
	C163.7603,277.3658,146.0678,261.9705,146.0678,261.9705z"/>
<ellipse class="st1" cx="254.3281" cy="254.9598" rx="127.4169" ry="127.4262"/>
<path class="st1" d="M190.6239,162.1679c-8.3931,0-16.5669,0.8238-24.5111,2.3797c-24.1549,23.1745-39.2016,55.7769-39.2016,91.9127
	c0,70.3672,57.0497,127.4262,127.4169,127.4262c8.3837,0,16.5669-0.8417,24.5017-2.3797
	c24.1549-23.1933,39.211-55.7779,39.211-91.9128C318.0408,219.227,260.9817,162.1679,190.6239,162.1679z"/>
<path class="st1" d="M254.3281,334.333c-61.9009,0-113.4593-44.1531-125.0006-102.6584
	c-1.5933,8.0182-2.4162,16.2923-2.4162,24.7857c0,70.3672,57.0497,127.4262,127.4169,127.4262
	c70.385,0,127.4169-57.0591,127.4169-127.4262c0-8.4934-0.8416-16.7675-2.4069-24.7857
	C367.8052,290.1799,316.229,334.333,254.3281,334.333z"/>
<g>
	<g>
		<g>
			<path class="st0" d="M217.4781,338.4335c7.9179,2.2147,16.6222,2.0507,25.7745-1.0797
				c-3.6337-1.2447-7.3312-2.9477-11.084-5.1812C227.1618,335.1381,222.2469,337.1888,217.4781,338.4335z"/>
			<path class="st0" d="M243.2526,180.1257c-6.214-2.0507-13.6736-2.7274-21.7283,0.1462c4.183,1.4284,7.7886,3.4781,10.6444,5.4183
				C235.1069,183.6769,238.8775,181.5531,243.2526,180.1257z"/>
			<path class="st0" d="M321.9397,217.3956c-20.5109-39.7592-42.2673-42.1577-56.9579-37.1237
				c-4.1923,1.4284-7.7979,3.4781-10.6538,5.4183c-2.9477-2.0132-6.7182-4.137-11.0755-5.5645
				c-4.3751,1.4274-8.1457,3.5513-11.084,5.5645c-2.8558-1.9401-6.4614-3.9899-10.6444-5.4183
				c-10.9837,3.9177-23.093,14.4253-34.7993,37.1237c-26.1494,50.6342-5.7388,110.8603,30.7532,121.0379
				c4.7688-1.2447,9.6837-3.2954,14.6905-6.2609c3.7528,2.2335,7.4502,3.9365,11.084,5.1812
				c3.6253-1.2447,7.3228-2.9477,11.0755-5.1812c5.0068,2.9655,9.9218,5.0162,14.699,6.2609
				C318.3247,351.3207,353.005,277.5851,321.9397,217.3956z"/>
		</g>
	</g>
	<path class="st2" d="M266.1263,160.6121c-9.9771-8.8786-21.5549,0-21.5549,0c8.1279,19.4583,5.1708,29.0511,5.1708,29.0511h0.0281
		c0.0637,0.5492,1.8389,0.9879,4.0358,0.9879c2.1875,0,3.9637-0.4386,4.0274-0.9879h0.0272
		C263.7831,177.8557,266.1263,160.6121,266.1263,160.6121z"/>
	<polygon class="st1" points="192.7843,252.8725 204.0969,222.1925 213.955,252.8725 	"/>
	<polygon class="st1" points="290.3815,250.9137 301.7213,220.2148 311.5699,250.9137 	"/>
	<path class="st2" d="M254.6121,285.8779v11.6425h-13.7936v-9.8487c-11.8169,0.4939-31.5133-13.4365-31.5133-13.4365
		c15.0101,30.6623,50.4599,31.7054,50.4599,31.7054l-0.2381-7.0107l8.6312-1.4096l1.1069,6.0772v0.9335
		c0,0,21.0338-10.7456,32.2368-31.0831C292.1472,282.6744,254.6121,285.8779,254.6121,285.8779z"/>
</g>
<path class="st3" d="M482.5457,181.151c0,0-1.9129-21.0151-17.0702-17.2623"/>
<line class="st3" x1="459.6364" y1="168.9405" x2="433.6145" y2="185.6723"/>
<path class="st3" d="M333.7379,167.3669c0,0,26.4793,22.2776,32.3737,46.1663"/>
<path class="st3" d="M368.3085,222.0453c0,0,5.3086,15.3953,5.0434,26.2693"/>
<path class="st3" d="M161.2344,333.8934c0,0,15.2941,18.7638,31.5498,26.1963"/>
<line class="st3" x1="199.2738" y1="364.5191" x2="213.7994" y2="370.7069"/>
<path class="st3" d="M32.3986,182.0293c0,0-2.9383-20.1725,3.1389-17.6832"/>
<line class="st3" x1="41.5968" y1="166.8176" x2="54.3472" y2="173.0775"/>
</svg>
