<?xml version="1.0" encoding="UTF-8" standalone="no"?> <svg width="64" height="64" viewBox="0 0 64 64" fill="none" xmlns="http://www.w3.org/2000/svg">
<path d="M16.6401 29.49C16.3749 29.49 16.1206 29.5953 15.933 29.7829C15.7455 29.9704 15.6401 30.2248 15.6401 30.49V49.21C15.6401 49.4752 15.7455 49.7296 15.933 49.9171C16.1206 50.1046 16.3749 50.21 16.6401 50.21C16.9054 50.21 17.1597 50.1046 17.3472 49.9171C17.5348 49.7296 17.6401 49.4752 17.6401 49.21V30.49C17.6401 30.2248 17.5348 29.9704 17.3472 29.7829C17.1597 29.5953 16.9054 29.49 16.6401 29.49Z" fill="#A03A0D"/>
<path d="M32 35C31.7348 35 31.4804 35.1054 31.2929 35.2929C31.1054 35.4804 31 35.7348 31 36V42.75C31 43.0152 31.1054 43.2696 31.2929 43.4571C31.4804 43.6446 31.7348 43.75 32 43.75C32.2652 43.75 32.5196 43.6446 32.7071 43.4571C32.8946 43.2696 33 43.0152 33 42.75V36C33 35.7348 32.8946 35.4804 32.7071 35.2929C32.5196 35.1054 32.2652 35 32 35Z" fill="#A03A0D"/>
<path d="M7.87012 47.0901C7.6049 47.0901 7.35055 47.1954 7.16301 47.383C6.97547 47.5705 6.87012 47.8249 6.87012 48.0901V58.9101C6.87012 59.1753 6.97547 59.4297 7.16301 59.6172C7.35055 59.8047 7.6049 59.9101 7.87012 59.9101C8.13533 59.9101 8.38969 59.8047 8.57722 59.6172C8.76476 59.4297 8.87012 59.1753 8.87012 58.9101V48.0901C8.87012 47.9588 8.84425 47.8287 8.794 47.7074C8.74374 47.5861 8.67008 47.4758 8.57722 47.383C8.48437 47.2901 8.37413 47.2165 8.2528 47.1662C8.13148 47.116 8.00144 47.0901 7.87012 47.0901Z" fill="#A03A0D"/>
<path d="M53.46 4.09009C52.3699 4.09406 51.3014 4.395 50.3693 4.96055C49.4373 5.52611 48.677 6.33492 48.17 7.30009C47.5962 7.30009 47.0279 7.41312 46.4977 7.63273C45.9675 7.85235 45.4858 8.17424 45.08 8.58003C44.6742 8.98582 44.3523 9.46757 44.1327 9.99776C43.9131 10.528 43.8 11.0962 43.8 11.6701C43.8 12.244 43.9131 12.8122 44.1327 13.3424C44.3523 13.8726 44.6742 14.3544 45.08 14.7601C45.4858 15.1659 45.9675 15.4878 46.4977 15.7074C47.0279 15.9271 47.5962 16.0401 48.17 16.0401H53.5C54.9904 15.9036 56.3759 15.2151 57.3848 14.1097C58.3936 13.0042 58.9529 11.5617 58.9529 10.0651C58.9529 8.56851 58.3936 7.12596 57.3848 6.02052C56.3759 4.91508 54.9904 4.22656 53.5 4.09009H53.46Z" fill="#31BDED"/>
<path d="M39.9001 13.7501C40.0314 13.7403 40.1595 13.7047 40.2771 13.6453C40.3946 13.5859 40.4993 13.504 40.5852 13.4042C40.6711 13.3044 40.7365 13.1886 40.7777 13.0635C40.8188 12.9384 40.8349 12.8064 40.8251 12.6751C40.8152 12.5438 40.7796 12.4157 40.7203 12.2981C40.6609 12.1806 40.579 12.0759 40.4792 11.99C40.3793 11.9041 40.2636 11.8387 40.1385 11.7975C40.0134 11.7564 39.8814 11.7403 39.7501 11.7501L26.5901 12.7501L39.7501 13.7501H39.9001Z" fill="#67D7EF"/>
<path d="M58.43 18.4901L41.5 19.4901L58.43 20.4901H58.55C58.8152 20.4742 59.0632 20.3536 59.2395 20.1548C59.4158 19.956 59.5059 19.6953 59.49 19.4301C59.4741 19.1649 59.3535 18.9168 59.1547 18.7405C58.9559 18.5643 58.6952 18.4742 58.43 18.4901V18.4901Z" fill="#67D7EF"/>
<path d="M35.1801 6.91C35.3114 6.90212 35.4399 6.86845 35.5582 6.81092C35.6766 6.75339 35.7824 6.67311 35.8697 6.57468C35.9569 6.47625 36.024 6.36159 36.067 6.23725C36.1099 6.11291 36.128 5.98132 36.1201 5.85C36.1122 5.71868 36.0786 5.5902 36.021 5.47189C35.9635 5.35358 35.8832 5.24776 35.7848 5.16047C35.6864 5.07318 35.5717 5.00614 35.4474 4.96316C35.323 4.92019 35.1915 4.90212 35.0601 4.91L18.1301 5.91L35.0601 6.91H35.1801Z" fill="#67D7EF"/>
<path d="M55.3301 24.0802L38.0801 25.0802L55.3301 26.0802H55.4501C55.5814 26.0723 55.7099 26.0386 55.8282 25.9811C55.9465 25.9236 56.0523 25.8433 56.1396 25.7448C56.2269 25.6464 56.2939 25.5318 56.3369 25.4074C56.3799 25.2831 56.398 25.1515 56.3901 25.0202C56.3822 24.8888 56.3485 24.7604 56.291 24.6421C56.2335 24.5237 56.1532 24.4179 56.0548 24.3306C55.9563 24.2433 55.8417 24.1763 55.7173 24.1333C55.593 24.0904 55.4614 24.0723 55.3301 24.0802V24.0802Z" fill="#67D7EF"/>
<path d="M60 57.91H58.5L46.5 42.1H46.45C46.3574 42.0071 46.2532 41.9264 46.14 41.8601L45.97 41.8H45.77H21.59C21.4444 41.8024 21.301 41.8365 21.17 41.9001C21.0474 41.9606 20.9384 42.0457 20.85 42.1501L8.85 57.96H4C3.73478 57.96 3.48043 58.0654 3.29289 58.2529C3.10536 58.4405 3 58.6948 3 58.96C3 59.2253 3.10536 59.4796 3.29289 59.6672C3.48043 59.8547 3.73478 59.96 4 59.96H60C60.2652 59.96 60.5196 59.8547 60.7071 59.6672C60.8946 59.4796 61 59.2253 61 58.96C61 58.6948 60.8946 58.4405 60.7071 58.2529C60.5196 58.0654 60.2652 57.96 60 57.96V57.91ZM20.59 57.91H11.27L20.59 45.67V57.91ZM22.59 57.91V45.67L31.91 57.91H22.59Z" fill="#F56500"/>
<path d="M55.3999 59.9101V42.3101C55.3999 42.0448 55.2945 41.7905 55.107 41.603C54.9195 41.4154 54.6651 41.3101 54.3999 41.3101C54.1347 41.3101 53.8803 41.4154 53.6928 41.603C53.5053 41.7905 53.3999 42.0448 53.3999 42.3101V59.9101H55.3999Z" fill="#A03A0D"/>
<path d="M23.3901 16.6502C23.3918 15.6199 23.1576 14.6029 22.7055 13.6771C22.2533 12.7513 21.5953 11.9412 20.7817 11.3091C19.9681 10.6769 19.0206 10.2394 18.0118 10.03C17.003 9.82063 15.9597 9.84497 14.9617 10.1012C13.9638 10.3573 13.0377 10.8386 12.2545 11.508C11.4713 12.1774 10.8517 13.0172 10.4433 13.9631C10.0348 14.909 9.84827 15.9358 9.89799 16.9649C9.94771 17.994 10.2324 18.9981 10.7301 19.9002C9.86294 20.7035 9.17239 21.6784 8.7024 22.763C8.2324 23.8476 7.99324 25.0181 8.00012 26.2002C7.96068 27.3589 8.15484 28.5137 8.57104 29.5957C8.98723 30.6778 9.61695 31.6651 10.4227 32.4987C11.2284 33.3323 12.1937 33.9952 13.261 34.448C14.3283 34.9008 15.4758 35.1341 16.6351 35.1341C17.7945 35.1341 18.942 34.9008 20.0093 34.448C21.0766 33.9952 22.0418 33.3323 22.8476 32.4987C23.6533 31.6651 24.283 30.6778 24.6992 29.5957C25.1154 28.5137 25.3096 27.3589 25.2701 26.2002C25.2756 25.0198 25.0358 23.8512 24.5658 22.7684C24.0959 21.6856 23.4061 20.7123 22.5401 19.9102C23.0957 18.9133 23.3882 17.7914 23.3901 16.6502V16.6502Z" fill="#4F7F0A"/>
<path d="M59.0601 34.5C59.4597 33.7042 59.649 32.8193 59.6101 31.9297C59.5712 31.04 59.3053 30.1751 58.8378 29.4171C58.3702 28.6592 57.7166 28.0335 56.9389 27.5995C56.1613 27.1656 55.2856 26.9377 54.3951 26.9377C53.5046 26.9377 52.6288 27.1656 51.8512 27.5995C51.0736 28.0335 50.4199 28.6592 49.9524 29.4171C49.4848 30.1751 49.219 31.04 49.1801 31.9297C49.1412 32.8193 49.3305 33.7042 49.7301 34.5C49.1128 35.1085 48.6232 35.8341 48.29 36.6343C47.9569 37.4345 47.7869 38.2932 47.7901 39.16C47.7901 40.9104 48.4854 42.5892 49.7232 43.8269C50.9609 45.0646 52.6397 45.76 54.3901 45.76C56.1405 45.76 57.8192 45.0646 59.057 43.8269C60.2947 42.5892 60.9901 40.9104 60.9901 39.16C60.9945 38.2939 60.8261 37.4357 60.4947 36.6355C60.1633 35.8353 59.6756 35.1093 59.0601 34.5V34.5Z" fill="#4F7F0A"/>
<path d="M37.0699 26.1601C37.071 25.3954 36.899 24.6405 36.567 23.9517C36.235 23.2629 35.7514 22.6581 35.1526 22.1827C34.5538 21.7072 33.8552 21.3733 33.1091 21.2061C32.3629 21.0388 31.5887 21.0424 30.8442 21.2167C30.0996 21.3911 29.4042 21.7315 28.8099 22.2126C28.2156 22.6937 27.7378 23.303 27.4123 23.9949C27.0868 24.6868 26.922 25.4434 26.9302 26.208C26.9385 26.9725 27.1196 27.7254 27.4599 28.4101C26.8665 29.0011 26.3965 29.7041 26.0772 30.4784C25.7579 31.2526 25.5957 32.0826 25.5999 32.9201C25.6653 34.575 26.3688 36.1404 27.5628 37.2881C28.7568 38.4359 30.3487 39.0769 32.0049 39.0769C33.6611 39.0769 35.2531 38.4359 36.4471 37.2881C37.6411 36.1404 38.3445 34.575 38.4099 32.9201C38.4142 32.0826 38.2519 31.2526 37.9326 30.4784C37.6133 29.7041 37.1433 29.0011 36.5499 28.4101C36.8944 27.7102 37.0724 26.9401 37.0699 26.1601V26.1601Z" fill="#4F7F0A"/>
<path d="M11.79 41.08C11.7969 40.4941 11.6724 39.914 11.4256 39.3826C11.1787 38.8511 10.8159 38.3817 10.3637 38.009C9.91153 37.6363 9.38155 37.3696 8.81274 37.2287C8.24394 37.0879 7.65079 37.0763 7.07692 37.1949C6.50305 37.3135 5.96308 37.5592 5.49672 37.9141C5.03036 38.2689 4.64949 38.7237 4.38211 39.2452C4.11474 39.7666 3.96768 40.3414 3.95174 40.9271C3.9358 41.5129 4.05139 42.0948 4.29001 42.63C3.45814 43.5233 2.99699 44.6994 3.00001 45.92C3.00001 47.2116 3.5131 48.4503 4.4264 49.3636C5.33971 50.2769 6.57841 50.79 7.87001 50.79C9.16162 50.79 10.4003 50.2769 11.3136 49.3636C12.2269 48.4503 12.74 47.2116 12.74 45.92C12.743 44.6994 12.2819 43.5233 11.45 42.63C11.6684 42.1421 11.7841 41.6145 11.79 41.08V41.08Z" fill="#4F7F0A"/>
</svg>
