<?xml version="1.0" encoding="utf-8"?>
<!-- Generator: Adobe Illustrator 24.0.2, SVG Export Plug-In . SVG Version: 6.00 Build 0)  -->
<svg version="1.1" id="Layer_1" xmlns="http://www.w3.org/2000/svg" xmlns:xlink="http://www.w3.org/1999/xlink" x="0px" y="0px"
	 viewBox="0 0 512 512" style="enable-background:new 0 0 512 512;" xml:space="preserve">
<style type="text/css">
	.st0{fill:none;stroke:#50322E;stroke-width:8.0832;stroke-linecap:round;stroke-miterlimit:10;}
	.st1{fill:#F16724;}
	.st2{fill:none;stroke:#50322E;stroke-width:6;stroke-linecap:round;stroke-miterlimit:10;}
</style>
<path class="st0" d="M256.0887,264.7988c0,0-4.4156,84.6964,12.5344,226.8105"/>
<path class="st1" d="M502.3589,166.0387l-2.1011,1.2726c-8.6702,2.0737-75.4903,16.2289-99.6152-33.1608l-99.6335,99.9981
	l37.1754-149.2802c-58.5941,5.2079-80.1548-69.0991-80.1548-69.0991l-0.0894,2.4477c-3.0446,8.3949-27.9884,71.9834-82.4875,64.9505
	l29.0567,140.0494l-91.7992-99.6955c-26.0477,48.4016-92.2451,31.6121-100.8442,29.1991l-2.0474-1.3529
	c0,0,47.8399,60.811,9.4541,105.402l165.5985,65.7334l-47.1461,38.8847c26.1725,15.9974,14.7959,52.3805,13.1933,57.0988
	l-0.8369,1.104c0,0,35.3768-24.8188,59.0388-2.0565l41.8582-90.6152h9.455l39.9529,96.3126
	c24.5701-21.8187,58.9149,4.371,58.9149,4.371l-0.7658-1.1394c-1.4248-4.7712-11.3593-41.582,15.4186-56.5291l-47.0213-41.9913
	l161.8237-56.9649C452.1688,224.917,502.3589,166.0387,502.3589,166.0387z"/>
<path class="st2" d="M255.572,326.9188c-6.3201-99.6872,6.5169-223.9791,6.5169-223.9791"/>
<path class="st2" d="M413.5506,214.9288c0,0-137.2721,80.4135-151.4617,115.9599"/>
<path class="st2" d="M102.6864,209.0446c0,0,133.9774,85.7637,146.7433,121.8441"/>
<path class="st2" d="M176.0581,378.2046c1.9763-0.7038,67.6213-51.2858,67.6213-51.2858"/>
<path class="st2" d="M329.9417,380.8391c-1.9589-0.7921-65.5565-53.9203-65.5565-53.9203"/>
<line class="st2" x1="228.136" y1="145.7504" x2="255.572" y2="175.8664"/>
<line class="st2" x1="255.572" y1="242.6865" x2="290.2551" y2="209.0446"/>
<line class="st2" x1="157.5592" y1="214.9288" x2="176.0581" y2="260.0011"/>
<line class="st2" x1="140.6275" y1="279.3896" x2="218.7704" y2="294.5237"/>
<line class="st2" x1="354.209" y1="252.1488" x2="410.257" y2="252.1488"/>
<line class="st2" x1="318.4932" y1="242.6865" x2="312.1366" y2="279.3896"/>
</svg>
