<?xml version="1.0" encoding="utf-8"?>
<!-- Generator: Adobe Illustrator 24.0.2, SVG Export Plug-In . SVG Version: 6.00 Build 0)  -->
<svg version="1.1" id="Layer_1" xmlns="http://www.w3.org/2000/svg" xmlns:xlink="http://www.w3.org/1999/xlink" x="0px" y="0px"
	 viewBox="0 0 512 512" style="enable-background:new 0 0 512 512;" xml:space="preserve">
<style type="text/css">
	.st0{fill:#F16724;}
	.st1{opacity:0.6;fill:#F16724;}
	.st2{fill:#020325;}
	.st3{fill:none;stroke:#FFECE0;stroke-width:10;stroke-linecap:round;stroke-miterlimit:10;}
</style>
<g>
	<g>
		<g>
			<path class="st0" d="M227.8818,141.3575c-32.7248-14.3139-86.6198-32.7528-130.8738-23.2959
				c48.2435,7.9594,93.6576,31.7666,102.9687,36.8601C203.8381,152.8045,213.9334,147.4549,227.8818,141.3575z"/>
			<path class="st0" d="M126.5293,416.0506c27.0564,3.6511,60.4299,2.0807,101.3525-9.0194
				c-8.9456-2.4276-18.2296-5.2758-27.9052-8.653C172.6089,407.9257,148.2268,413.4763,126.5293,416.0506z"/>
			<path class="st0" d="M469.0649,155.8901c-24.3456-39.7092-68.3903-44.7485-110.299-37.8285
				c21.6984,4.6373,41.0777,15.9749,54.4877,37.8285c55.8113,90.9739,33.4735,184.266,18.6035,200.5335
				c-5.3486,5.86-32.8444,50.17-102.6219,59.627c111.6049,13.2548,151.8609-52.4153,158.4425-59.627
				C502.5664,340.1561,524.8855,246.864,469.0649,155.8901z"/>
			<path class="st1" d="M469.0649,156.2911c-24.3456-39.6906-68.3903-44.7289-110.299-37.8276
				c21.6984,4.6551,41.0777,15.9927,54.4877,37.8276c55.8113,90.9739,33.4735,184.2669,18.6035,200.5522
				c-5.3486,5.8609-32.8444,50.1701-102.6219,59.627c111.6049,13.2548,151.8609-52.4153,158.4425-59.627
				C502.5664,340.558,524.8855,247.265,469.0649,156.2911z"/>
			<path class="st0" d="M431.857,356.4236c14.8701-16.2675,37.2079-109.5596-18.6035-200.5335
				c-13.4099-21.8536-32.7892-33.1912-54.4877-37.8285c-48.2529,7.9594-93.6492,31.7666-102.9602,36.8601
				c-3.8699-2.1172-13.9848-7.4668-27.9239-13.5642c-13.9484,6.0974-24.0437,11.447-27.9052,13.5642
				c-9.3111-5.0935-54.7251-28.9007-102.9687-36.8601c-21.7171,4.6373-41.0787,15.9749-54.497,37.8285
				c-55.8113,90.9739-33.4838,184.266-18.6128,200.5335c5.358,5.86,32.8528,50.17,102.6312,59.627
				c21.6975-2.5743,46.0796-8.1249,73.4473-17.6725c9.6756,3.3773,18.9596,6.2255,27.9052,8.653
				c8.9465-2.4276,18.2576-5.2758,27.9239-8.653c27.3677,9.5476,51.7311,15.0981,73.4295,17.6725
				C399.0126,406.5937,426.5084,362.2836,431.857,356.4236z"/>
			<path class="st1" d="M42.5109,156.2911c24.3727-39.6906,68.408-44.7289,110.3261-37.8276
				c-21.7078,4.6551-41.0684,15.9927-54.4877,37.8276C42.5109,247.265,64.8571,340.558,79.7365,356.8433
				c5.3402,5.8609,32.8444,50.1701,102.6125,59.627c-111.6132,13.2548-151.8516-52.4153-158.4509-59.627
				C9.0271,340.558-13.3004,247.265,42.5109,156.2911z"/>
		</g>
		<g>
			<path class="st1" d="M256.2899,398.6698c-30.7814-16.5227-44.8205-38.5034-48.4632-42.5023
				c-14.8887-16.2843-37.2069-109.5774,18.595-200.5513c2.5014-4.0353,5.1757-7.7052,8.0417-11.046
				c-9.283-4.2905-20.9861-9.2746-34.1035-13.8932c-8.982,6.0974-16.9882,14.24-23.5427,24.9392
				c-55.8197,90.9739-33.4829,184.2669-18.6035,200.5513c4.3083,4.7476,23.1865,34.7065,67.2947,50.9553
				c9.3298-2.4827,19.0334-5.459,29.1652-9.0007C255.213,398.3052,255.7514,398.4875,256.2899,398.6698z"/>
		</g>
		<g>
			<path class="st1" d="M256.2899,398.6698c30.7898-16.5227,44.8111-38.5034,48.4632-42.5023
				c14.8794-16.2843,37.2163-109.5774-18.6044-200.5513c-2.4827-4.0353-5.1664-7.7052-8.0323-11.046
				c9.2831-4.2905,20.9675-9.2746,34.1035-13.8932c9.0007,6.0974,16.9789,14.24,23.5511,24.9392
				c55.83,90.9739,33.4838,184.2669,18.6044,200.5513c-4.327,4.7476-23.2053,34.7065-67.2957,50.9553
				c-9.3288-2.4827-19.0503-5.459-29.1652-9.0007C257.3667,398.3052,256.8189,398.4875,256.2899,398.6698z"/>
		</g>
		<path class="st1" d="M279.8232,276.6406c0,67.2405-10.5253,121.7375-23.5334,121.7375c-12.9902,0-23.5427-54.497-23.5427-121.7375
			c0-67.2218,10.5524-121.7189,23.5427-121.7189C269.2979,154.9217,279.8232,209.4187,279.8232,276.6406z"/>
	</g>
	<polygon class="st2" points="94.5243,199.8889 94.5243,269.9402 139.5373,244.9281 	"/>
	<polygon class="st2" points="416.6215,192.7502 416.6215,262.766 371.6001,237.7717 	"/>
	<path class="st2" d="M102.2566,320.129l62.0181,0.4375v27.7687h24.8298l5.1664-28.2062h13.4371v28.2062h38.2389l-3.0847-28.2062
		l60.987-5.9151l7.2294,25.6505h19.6354l4.6102-30.8179h74.999c0,0-27.9145,57.893-111.6497,65.1224l-2.063-14.5691h-35.1542
		l-5.1664,18.7138c0,0-34.6242,1.0226-56.3413-3.6334l-3.094-9.2924C196.8545,365.3879,152.6641,360.1841,102.2566,320.129z"/>
	<path class="st2" d="M260.9449,95.1489c0,0-25.6319,53.4931-17.8818,77.5191c0,0,1.9078,11.3012,24.8195,0
		c0,0-3.1221-51.174,24.8018-66.6741C292.6845,105.9939,285.026,85.8379,260.9449,95.1489z"/>
</g>
<path class="st3" d="M406.4439,130.677c0,0,27.8594,3.3408,54.0399,40.0009"/>
<line class="st3" x1="466.4177" y1="182.0155" x2="473.5564" y2="196.7491"/>
<path class="st3" d="M452.5244,378.4043c0,0-38.2847,32.808-117.7938,29.7046"/>
<path class="st3" d="M459.6809,369.441c0,0,17.2527-15.1533,20.1916-27.1303"/>
<path class="st3" d="M227.8818,162.6811c0,0-66.2544-24.6102-88.3445,3.1585"/>
<path class="st3" d="M279.8232,162.2614c0,0,41.4432-20.3748,72.1601-3.0305"/>
<path class="st3" d="M105.4974,127.8111c0,0-27.8603,3.3586-54.0409,40.0186"/>
<line class="st3" x1="45.532" y1="179.1673" x2="38.3849" y2="193.9009"/>
<path class="st3" d="M59.4075,375.5571c0,0,38.294,32.807,117.7938,29.6849"/>
<path class="st3" d="M52.251,366.5928c0,0-17.2443-15.1533-20.1832-27.1303"/>
<path class="st3" d="M238.2977,184.115c0,0-29.8869,9.4017-36.0852,23.953"/>
<path class="st3" d="M270.6308,184.7721c0,0,29.8682,9.4027,36.0749,23.9343"/>
</svg>
